<?xml version="1.0" encoding="utf-8"?>
<!-- Generator: Adobe Illustrator 26.3.1, SVG Export Plug-In . SVG Version: 6.00 Build 0)  -->
<svg version="1.1" id="Layer_1" xmlns="http://www.w3.org/2000/svg" xmlns:xlink="http://www.w3.org/1999/xlink" x="0px" y="0px"
	 viewBox="0 0 441.8 248.4" style="enable-background:new 0 0 441.8 248.4;" xml:space="preserve">
<style type="text/css">
	.st0{fill:#FFFFFF;}
</style>
<g id="a">
</g>
<g id="b">
	<g id="c">
		<g>
			<g>
				<path d="M79.1,67.4c0.2,3.1,0.4,6.1,0.6,9c0.6,9.8,1.3,19.6,1.9,29.5c2,34.6,0.8,69.3,0.9,104c0,1.4-0.5,1.8-1.7,1.6
					c-1.3-0.2-1.9,0.4-1.9,1.8c0,2.3-0.2,4.6-0.4,7.2c0.8-0.8,1.3-1.4,2-1.8c1.3-0.9,2.7-1.7,4.1-2.3c1.3-0.6,2.6-0.3,3.6,0.8
					s1.1,2.5,0.3,3.7c-1,1.4-2.3,2.7-3.5,4.1c2.4,0.3,4.8-0.2,7.2-1.4c0.4,0.7,0.8,1.4,1.1,2.1c-2.1,1.4-4.4,1.7-6.8,2.2
					c1.8,0.6,3.5,1.2,5.3,1.8c4.6,1.5,9.3,2.9,13.9,4.4c5.8,2,9.4,7.1,9.2,12.9c0,1.1-0.4,1.5-1.6,1.5c-17.4,0-34.8,0-52.2,0
					c-5.2,0-10.3-0.1-15.5-0.1c-0.9,0-1.3-0.4-1.7-1.1c-2-3.4-4.1-6.8-6.2-10.2c-0.4-0.7-1-1.2-1.7-1.8c-1.1,4.3-0.8,8.7-0.7,13.1
					H14.2c1.1-11.5,2.1-23,3.2-34.6c-0.5,0-1,0-1.4,0c-2.1,0.1-4.3,0.1-6.4,0.3c-1.2,0.1-1.7-0.3-1.9-1.5c-0.8-4.6-0.8-9.2-0.4-13.8
					c1-10.2,2.1-20.3,2.9-30.5c0.7-8.8-0.2-17.5-1.3-26.2c-1.5-11.5-3.1-23-4.5-34.5c-1.2-9.3-2.3-18.7-3.2-28.1
					C0.1,67-0.6,54.6,0.7,42.2c0.6-5.8,1.6-11.6,4.6-16.8c4-7,8.8-13.4,15.8-17.8c4.9-3.1,10.3-4.9,16-6c11.1-2.2,22.3-1.9,33.5-0.5
					c7.6,0.9,15.3,1.6,23,2.5C105.3,5,117,6.8,128.1,11c7.9,3,14.9,7.2,20.1,14.1c2.1,2.8,3.7,5.9,4.9,9.1c0.2,0.5,0.8,1.1,1.2,1.2
					c3.8,1,7.5,1.9,11.2,2.8c1.5-2.4,2.8-4.8,4.4-7c3.6-5,8.1-9,14-10.9c13.4-4.4,28.8,3.9,30.9,18.3c0.5,3.5-0.1,6.9-1.4,10.2
					c-0.3,0.7-0.6,1.4-1,2.4c1.5,0,2.8,0.1,4.1,0c2.2-0.1,2.2-0.2,2.3,2.2c-2.2,0.6-4.4,0.6-6.6,0.2c-0.8-0.2-1.3,0-1.8,0.7
					c-1.2,1.7-2.6,3.4-4,5.1c0.3,0.2,0.6,0.5,0.9,0.8c0.8,0.8,1.6,1.5,2.3,2.4c1.3,1.9,1.2,3.9-0.2,5.6c-1.3,1.6-3.3,1.9-5.4,1
					c-0.7-0.3-1.3-0.8-2.2-1.3c0.3,1.2,0.4,2.3,0.7,3.3c1.6,5.3-2.8,8.2-7.5,6.7c-2-0.6-3.8-1.7-5.7-2.7c-0.7-0.4-1.3-0.3-2,0.1
					c-3.2,1.9-6.5,3.6-10.2,4.5c-4.1,1.1-7.3-0.6-10.1-3.3c-1.4-1.4-2.6-3.1-3.9-4.6c-0.2-0.3-0.4-0.7-0.7-0.7
					c-2.4-0.5-4.9-1-7.5-1.6c-0.2,2.9-0.4,5.6-0.6,8.2c-0.8,9.2-1.6,18.5-2.3,27.8c-0.5,6.5-0.8,13,0.2,19.5
					c0.4,2.8,1.2,5.5,2.3,8.1c1.5,3.6,4.4,5.3,8.2,5.9c6.4,1,12.3-0.4,18-3.3c4.1-2.1,8.2-4.4,12.4-6.4c6.7-3.1,13.7-3.4,20.9-2.4
					c6.5,0.9,12.8,2.4,18.7,5.3c0.3,0.1,0.8,0,1.1-0.1c0.4-0.3,0.8-0.8,1.2-1.1c1.8-1.4,2.7-2.7,1.4-5.3c-1.5-3.1-0.5-6.4,0.7-9.5
					c3.4-8.3,9.3-14.3,16.8-19c4.1-2.6,8.5-4.4,13.5-4.4c2.8,0,5.2,0.8,7.1,2.9c1,1.1,2,2.1,3,3.1c3.2,3.2,3.6,7,2.5,11.2
					c-1.3,4.8-3.8,8.9-7,12.5c-5.1,5.8-11,10.3-18.5,12.6c-3.1,0.9-6.2,1.3-9.3,0.1c-1-0.4-2-1-3.1-1.6c-1,0.9-2,1.9-3.1,2.9
					c1.3,1.6,2.6,3.2,2.4,5.3c-0.2,2.2-1.6,3.5-3.6,4.3c0.9,2.1,1.6,4.1,0.6,6.1c-1,2.1-2.9,2.7-5.1,2.7c0.2,4-1.8,5.8-5.9,5
					c-1-0.2-1.4-0.1-1.9,0.9c-0.7,1.7-2.3,2.3-3.9,2.1c-1.9-0.2-3.7-0.6-5.5-1.2c-1.2-0.4-2-0.4-2.9,0.6c-2.1,2.3-4.4,4.4-6.6,6.7
					c-0.3,0.3-0.7,0.6-1.1,1.1c-1.9-1.7-3.8-3.4-5.5-4.9c-3.7,2.9-7.2,5.9-10.9,8.5c-5.4,3.8-11.3,6.5-17.7,7.9
					c-8,1.8-15.8,1.1-23.5-1.6c-8.4-2.9-15.9-7.2-22-13.6c-6.1-6.4-9.9-14-12.3-22.5c-2-7.4-2.4-14.9-3-22.5
					c-0.6-7.3-1.4-14.6-2.2-21.8c-0.6-4.8-1.4-9.6-2.1-14.3c-0.1-0.5-0.3-1-0.7-1.3c-7.8-7-16.5-12.5-26.1-16.7
					C79.7,67.5,79.5,67.5,79.1,67.4L79.1,67.4z M149.4,110.4c-0.5,0.1-0.8,0.2-1.2,0.2c-4.5,1.2-9,2.4-13.5,3.5
					c-6.7,1.8-13.5,3.6-20.2,5.3c-0.8,0.2-1.1,0.6-1,1.4c0.1,1.1,0.2,2.1,0.2,3.2c0.4,6.4,1,12.8,2.7,19c2.2,8.1,5.8,15.4,11.6,21.6
					c5.9,6.3,13.2,10.4,21.2,13.2c10.6,3.8,20.9,3.1,31.1-1.5c7.1-3.2,13.2-7.9,18.6-13.4c3.8-3.8,8.2-5.1,13.3-4.4
					c1.8,0.2,3.5,0.6,5.1,0.9c-0.2-0.7-0.6-1.4-0.7-2.1s0.1-1.5,0.2-2.3c-0.4-0.2-0.7-0.4-1.1-0.5c-1.8-0.6-3.6-1.3-5.5-1.9
					c-1-0.3-1.2-0.6-0.9-1.5c0.1-0.4,0.2-0.8,0.3-1.2c5.8,1.4,11,3.7,15.7,7.1c-0.1-0.5-0.4-0.8-0.7-1.1c-1-1.2-1.5-2.7-1-4.2
					c0.3-1.1,0-1.5-0.9-1.8c-3.8-1.4-7.6-2.9-11.5-4.3c-1.3-0.5-0.5-1.2-0.5-1.9c0-0.8,0.5-0.9,1.2-0.7c6.4,1.8,12.6,4.1,18,8.2
					c0.7,0.5,1.5,0.8,2.3,1.2l0.3-0.4c-0.3-0.2-0.7-0.4-0.9-0.6c-0.9-1.1-2-2.1-2.8-3.3c-0.9-1.4-0.7-2.8,0.3-4.2
					c0.2-0.3,0.4-0.5,0.7-0.9c-0.4-0.2-0.7-0.4-1.1-0.5c-5.3-1.8-10.5-3.6-15.8-5.2c-1.1-0.3-1-0.7-0.9-1.6c0.2-1,0.6-1.1,1.5-0.9
					c2.5,0.7,5,1.3,7.5,2.1c5.3,1.7,10.6,3.4,15.1,6.9c0.2,0.1,0.5,0.2,0.7,0.2c-0.5-0.9-1.2-1.6-1.9-2.3c-1.2-1.5-2.1-3.1-1.5-5.2
					c0.1-0.3-0.3-0.9-0.6-1.1c-1.1-0.6-2.2-1.2-3.4-1.8c-5.2-2.3-10.7-3.4-16.3-4.2c-7.1-0.9-13.8-0.3-20.2,2.9
					c-3.8,1.9-7.4,3.9-11.1,5.8c-5.7,2.9-11.6,4.3-18.1,3.6c-4.7-0.6-8.6-2.3-10.9-6.6c-0.9-1.7-1.6-3.6-2.1-5.5
					c-1.3-4.9-1.5-9.9-1.4-14.9C149.4,113.5,149.4,112.1,149.4,110.4L149.4,110.4z M21.8,210.5c0-0.4-0.1-0.6-0.1-0.9
					c0.5-7.4,0.9-14.8,1.5-22.2c0.3-4.5,1.2-9,1.1-13.5c-0.1-7.1-0.7-14.2-1.2-21.3c-0.5-7.7-1.4-15.4-1.7-23.2
					c-0.3-8.2-1.1-16.4-2.2-24.5c-1.9-14.5-3.8-28.9-5.4-43.4c-0.9-8.2-1.1-16.5,0.4-24.7c1.3-6.9,4.1-13,9-18
					c7-7.2,15.8-10.6,25.5-12.2c2.9-0.4,5.8-0.6,8.7-0.9c0-0.7-0.1-1.4-0.1-2.1c0-0.9-0.4-1.2-1.4-1.2C49.3,2.6,42.8,3,36.4,4.3
					C21.1,7.3,11.6,17,5.8,30.8c-2.5,6-2.9,12.6-3,19.1c0,8,0.2,16.1,0.7,24.2c0.5,7.5,1.3,15,2.2,22.5c0.9,8.2,2.1,16.3,3.2,24.4
					c1.1,8.3,2.2,16.6,3.2,24.9c1.1,8.1,1.3,16.3,0.7,24.5c-0.7,9.2-1.9,18.3-2.7,27.4c-0.3,4.1,0,8.3,0,12.4c0,0.8,0.3,1.1,1.2,1.1
					c3.7-0.2,7.4-0.3,11-0.4c0.3,0,0.6-0.1,1.1-0.2C23.3,210.8,21.8,210.5,21.8,210.5z M40.8,210.3c0-0.5,0-0.9,0-1.3
					c-0.1-2.7-0.2-5.4-0.3-8.1c-0.3-5.8-0.4-11.6-0.9-17.4c-0.6-7.1-1.4-14.1-2.1-21.2c-1-10.1-2-20.2-3.2-30.2
					c-1-8.7-2.2-17.4-3.2-26.1c-1.2-10.2-2.6-20.4-3.5-30.6c-0.9-9.4-1.3-18.8-1.9-28.2c-0.2-3.7,0.3-7.3,1.5-10.9
					c2.6-7.8,8.1-12.9,15.2-16.5c4.5-2.2,9.2-3.8,14.1-4.4c1.2-0.2,1.8-0.5,1.5-1.9c-0.2-1.2-0.3-2.4-0.3-3.6c0-1.1-0.4-1.4-1.5-1.3
					c-6.9,0.2-13.5,1.5-19.8,4.2C25.8,17.5,19.1,25.4,16.8,37c-1.4,6.7-1.1,13.5-0.8,20.3c0.8,13.7,2.9,27.2,4.7,40.8
					c1,6.9,1.9,13.7,2.6,20.6c0.5,5.1,0.4,10.2,0.8,15.2c0.8,9.9,1.8,19.9,2.4,29.8c0.3,5.3,0.3,10.6,0,15.9
					c-0.6,10-1.5,20-2.2,29.9c0,0.4,0,0.8,0,1.3C29.8,210.7,35.2,210.5,40.8,210.3L40.8,210.3z M58.4,17.7c-0.7,0.1-1.3,0-1.8,0.2
					c-3.5,1-7,1.6-10.3,3C35,25.5,27.6,34.1,28.3,48c0.5,9.8,1.2,19.6,2.1,29.4c0.8,9.1,2.1,18.2,3.2,27.3c1,8.7,2.2,17.3,3.2,26
					c1.2,11.1,2.3,22.2,3.5,33.3c1.2,11.5,2.5,23,2.7,34.5c0.1,3.5,0.2,7,0.4,10.5c0,0.7,0,1.3,1,1.2c2.8-0.1,5.6-0.2,8.3-0.3
					c0.9,0,1.1-0.4,1-1.2c-1-7.7-1.8-15.5-2.9-23.2c-1-7.4-1.8-14.8-2.2-22.3c-0.4-7.8-0.8-15.6-1.5-23.3
					c-0.5-5.2-1.5-10.4-2.1-15.6c-0.7-7.1-1.3-14.2-1.7-21.4c-0.7-14.6-1.2-29.2-1.7-43.7c-0.1-3.4,0-7,0.6-10.3
					c1.5-8.5,5.9-15.1,13.5-19.4c1.2-0.7,2.9-1,3.4-2s0-2.6-0.2-4C58.8,21.6,58.6,19.7,58.4,17.7L58.4,17.7z M61.8,212.2
					c-0.8,0-1.3,0-1.9,0c-4.8,0.2-9.5,0.3-14.2,0.5c-8.1,0.3-16.2,0.6-24.4,0.9c-1,0-1.3,0.3-1.4,1.3c-0.8,9.2-1.7,18.4-2.6,27.6
					c-0.1,1.1-0.1,2.2-0.2,3.2c0.3,0.1,0.4,0.1,0.5,0.1c4.8,0,9.5,0,14.2,0c0.8,0,0.9-0.4,0.9-1.1c0-1.7-0.1-3.4,0-5.1
					c0.1-1.7,0.3-3.4,0.8-5.1c0.7-2.6,2.4-3.1,4.4-1.3c0.8,0.7,1.5,1.5,2.1,2.4c1.8,2.9,3.7,5.8,5.4,8.7c0.5,0.9,1,1.2,2.1,1.2
					c16.2,0,32.3,0,48.5,0c0.5,0,0.9,0,1.5,0c-0.2-3.1-1.3-5.6-3.7-7.3c-1.7-1.2-3.7-2.1-5.7-2.8c-8.6-2.9-17.3-5.7-26-8.4
					c-0.9-0.3-1.4-0.7-1.3-1.7c0.2-1.6,0.3-3.2,0.4-4.8C61.4,217.9,61.6,215.2,61.8,212.2L61.8,212.2z M196.5,38.3
					c-2.6,1.1-5,2-7.4,3.1c-0.9,0.4-1.4,0.5-1.6-0.8c-0.2-1.1-0.7-2.2-1.3-3.2c-1.6-2.8-3.9-4-6.9-3.5c-2.4,0.4-4.3,2.4-4.9,5.3
					c-0.2,1.1-0.3,2.2-0.5,3.5c-6.5-1.6-12.9-3.1-19.4-4.7c0,0.5,0.1,0.8,0.1,1c0.4,4.3,1.1,8.6,1.2,12.9c0.1,4.6-0.1,9.2-0.3,13.7
					c0,1,0.1,1.5,1.3,1.7c2.4,0.3,4.8,0.9,7.2,1.4c0.5,0.1,1,0.5,1.2,0.9c1.2,2.4,3,4.3,5.1,6c2.2,1.7,4.7,2.5,7.3,1.4
					c3.3-1.4,6.4-2.9,9.6-4.6c1-0.5,1.7-0.6,2.7-0.1c1.6,0.9,3.1,1.8,4.8,2.4c1.1,0.4,2.3,0.8,3.4,0.8c1.8,0,2.7-1.1,2.4-2.9
					s-0.8-3.7-1.2-5.5c-0.7-2.6-0.2-4.7,2-6.5c1.7-1.4,3.3-3,4.8-4.6c1-1.1,1.9-2.3,2.9-3.6C202.5,49.7,199.1,44.4,196.5,38.3
					L196.5,38.3z M59.6,30.4c-0.7,0.3-1.2,0.5-1.6,0.7c-4.8,2.5-8.3,6.2-10.7,11c-2.6,5.3-3.3,10.9-3,16.7
					c0.5,12.9,0.9,25.8,1.5,38.7c0.3,7.2,0.7,14.4,1.3,21.7c0.3,3.4,1.3,6.8,1.6,10.3c0.9,10.1,1.6,20.1,2.4,30.2
					c0.6,7,1,14.1,1.8,21.1c1,8.7,2.2,17.4,3.2,26.1c0.3,2.9,0.3,2.9,3.1,2.8c0.9,0,1.2-0.3,1.1-1.2c-0.1-6.2,0-12.3-0.3-18.5
					c-0.7-13.7-1.5-27.4-2.4-41.1c-0.6-10.1-1.4-20.1-2.2-30.2c-0.6-7.3-1.4-14.7-1.9-22c-0.8-11-0.6-22.1,0.9-33
					c0.7-5.2,1.6-10.4,3.7-15.3c0.5-1.2,1.5-2.2,2.2-3.3c0.2-0.4,0.6-0.8,0.5-1.2c-0.1-1.7-0.2-3.3-0.4-5
					C60.1,36.1,59.8,33.4,59.6,30.4L59.6,30.4z M61.2,48.3l-0.6-0.1c-0.6,2-1.4,4-1.9,6C57,61,56.2,68,55.8,75
					c-0.5,8.1-0.4,16.2,0.3,24.2c0.7,8.1,1.5,16.3,2.2,24.4c0.9,12.7,1.8,25.3,2.6,38c1,15,1.9,30,1.8,45c0,2.9,0,2.9,2.8,2.7
					c1.9-0.1,1.9,0.3,1.9-2c0-20.6-0.1-41.2-0.1-61.9c0-7.8,0.5-15.7-0.1-23.5C66,104.6,64.3,87.3,62.7,70c-0.2-2.9-0.5-5.8-0.7-8.7
					C61.8,57,61.5,52.6,61.2,48.3L61.2,48.3z M245.7,129.3c1.4-0.2,2.8-0.3,4.1-0.8c10-3.2,17.3-9.7,22.3-18.9
					c1.5-2.7,2.4-5.7,2-8.9c-0.3-2.4-1.5-4.2-3.9-4.7c-1.8-0.4-3.8-0.5-5.6-0.2c-5.2,0.8-9.7,3.5-13.7,6.8
					c-5.2,4.3-9.5,9.3-11.7,15.9c-0.3,1-0.5,2.1-0.6,3.1C238.1,126.3,241.3,129.3,245.7,129.3L245.7,129.3z M64.8,62.8
					c0,0.5,0,1,0,1.5c0.7,7.2,1.4,14.5,2.1,21.7c0.8,8.1,1.5,16.1,2.2,24.2c1,11.1,1,22.1,0.8,33.2c-0.3,21.5-0.1,43-0.1,64.6
					c0,0.4,0.1,0.9,0.1,1.3c1.5,0,2.8,0,4.1,0c1,0,1.2-0.4,1.2-1.3c-0.2-3.9-0.4-7.7-0.4-11.5c-0.3-16.4-0.8-32.9-0.7-49.3
					c0.2-17.9-0.1-35.7-1.6-53.5c-0.7-8.3-1.4-16.5-2.1-24.8c-0.1-1.6,0.2-3.7-0.6-4.6c-1-1-3.1-1-4.7-1.4
					C65.1,62.8,65,62.8,64.8,62.8L64.8,62.8z M171.6,39.7c1.1-4.5,3.2-8,8.3-8.4c5-0.3,7.7,2.9,9.6,7.1l8.2-3.4
					c1.3,2.6,2.3,5.2,3.7,7.5c1.9,3.2,4.4,5.8,7.8,7.4c0.5,0.2,0.9,0.4,1.2-0.3c2-4.2,2.8-8.4,1.6-13c-3.8-13.1-18.5-18.1-29.2-13.2
					c-6.7,3-10.9,8.5-14.1,14.9c-0.1,0.1,0,0.3-0.1,0.5L171.6,39.7L171.6,39.7z M80,208.8c0-2.7,0-5.4,0-8.1
					c0.1-21.9,0.5-43.8,0.1-65.7c-0.3-16.7-1.5-33.4-2.4-50.1c-0.3-5.8-0.8-11.5-1.2-17.3c0-0.6-0.3-1.3-0.7-1.6
					c-0.8-0.5-1.8-0.7-2.9-1.1c0,0.9-0.1,1.7,0,2.4c0.6,6.9,1.2,13.7,1.7,20.6c0.7,9.9,1.5,19.7,1.9,29.6c0.3,9.3,0.2,18.6,0.1,28
					c-0.2,20.6,0.3,41.2,1.2,61.9C77.9,209.2,77.9,209.2,80,208.8L80,208.8z M71.7,227.6c0.4,0.2,0.6,0.3,0.8,0.3
					c5.5,1.8,11,3.6,16.5,5.2c6.1,1.8,10.3,5.3,11.2,11.9c0,0.3,0.7,0.7,1.1,0.7c2.2,0.1,4.4,0,6.6,0c1.5,0,3,0,4.6,0
					c-0.1-0.8-0.1-1.4-0.3-1.9c-1-4-3.7-6.4-7.5-7.6c-9.1-3-18.2-5.8-27.2-8.9C75.5,226.7,73.8,227.2,71.7,227.6L71.7,227.6z
					 M277.4,102.3l-0.4,0.2c-1,8.3-5.5,14.5-11.5,19.9c-5.9,5.3-12.5,9.3-20.9,9.7c0.6,0.5,1.3,0.9,1.9,1.1c2.4,0.8,4.9,0.6,7.2-0.2
					c10.5-3.4,18-10.2,22.9-20c1.2-2.4,1.9-5,1.5-7.7C278.1,104.2,277.7,103.3,277.4,102.3L277.4,102.3z M76.6,211.9
					c-0.2-0.1-0.3-0.2-0.3-0.2c-3.7,0.1-7.4,0.2-11.2,0.4c-0.2,0-0.6,0.3-0.7,0.4c-0.2,2.2-0.3,4.4-0.5,7.1c0.7-0.5,1-0.8,1.3-1
					c1.4-0.8,2.7-1.6,4.1-2.3c1.2-0.5,2.5-0.2,3.4,0.8s1.2,2.3,0.4,3.4c-0.8,1.3-2,2.4-3,3.6c-0.2,0.2-0.6,0.4-0.8,0.6
					c1.9,0.4,3.7,0.2,5.5-0.4c0.8-0.3,1.1-0.7,1.1-1.5c0.1-2.4,0.3-4.7,0.4-7C76.4,214.4,76.5,213.1,76.6,211.9L76.6,211.9z
					 M236.8,150.6c-0.5-2.6-1.6-4.5-3.6-5.8c-0.4-0.2-1.3,0-1.7,0.3c-0.4,0.2-0.7,1.1-0.5,1.4c1,2,2.5,3.6,4.6,4.5
					C235.9,151.1,236.4,150.7,236.8,150.6z M211.3,161.2c-3.4-0.6-5.7,0.7-7.4,4.1l1.8,1.6L211.3,161.2z M64.2,223.5l0.2,0.3
					c0.8-0.3,1.7-0.4,2.3-0.8c1.4-0.9,2.7-2,4-3.1c0.2-0.2,0.2-0.7,0.2-1.1c0-0.1-0.6-0.3-0.9-0.2C67.3,219.5,65.6,221.3,64.2,223.5
					L64.2,223.5z M79.7,223.7c2.5-0.4,4.7-1.4,6.2-3.5c0.3-0.4,0.2-0.9,0.3-1.4c-0.5,0-1-0.1-1.4,0.1
					C82.6,219.9,80.9,221.5,79.7,223.7L79.7,223.7z M235.7,134.3c0.8,0.2,1.7,0.6,2,0.4c1.1-0.8,2.1-1.9,3.1-2.9l-1.1-1.3
					C238.4,131.7,237.3,132.9,235.7,134.3L235.7,134.3z M231.2,156.5c-1-2.2-2.9-3.3-4.8-4.6C226,154.3,228.6,156.7,231.2,156.5z
					 M205.9,62.2c-1.6-1.4-1.3-1.2-3.4,0.9c-1.2,1.2,0.5,1.6,0.8,2.1C204.2,64.3,205,63.3,205.9,62.2L205.9,62.2z M219.4,156.2
					c-0.3,1.8,1.8,3.3,4,2.8L219.4,156.2z M236.2,137.8c0.1,1.9,1.4,2.9,2.9,3.9C239,139.8,237.6,138.8,236.2,137.8z"/>
				<path d="M270.9,27.6c2.6,0.3,5.1,0.5,8,0.9c-1.4-1.8-2.6-3.3-4-5l1.9-1.7c1.3,1.6,2.6,3.1,4.2,5c0.4-3.4,0.7-6.4,1-9.7l2.6,0.2
					c-0.3,2.8-0.5,5.4-0.8,8c-0.4,3.5-0.4,3.5,3,3.9c1.6,0.2,3.1,0.4,4.7,0.5c1.6,0.2,1.6,0.2,1.3,1.8c0,0.2-0.1,0.5-0.2,0.9
					c-2.4-0.3-4.8-0.5-7.6-0.8c1.3,1.7,2.5,3.1,3.6,4.6c-0.7,0.5-1.3,1-1.9,1.6c-1.2-1.4-2.3-2.8-3.6-4.4c-0.3,2.7-0.6,5.2-0.8,7.7
					c-0.3,0-0.6,0.1-0.9,0c-1.8-0.1-1.8-0.1-1.5-1.9c0.3-2.6,0.5-5.3,0.8-8.1c-1.6-0.2-3.2-0.4-4.8-0.6c-1.2-0.1-2.5-0.3-3.7-0.4
					c-1.6-0.2-1.7-0.2-1.4-1.8C270.7,28.2,270.8,27.9,270.9,27.6L270.9,27.6z"/>
				<path d="M348.3,37c-2.4,0-4.4-2-4.3-4.5c0-2.4,2-4.3,4.4-4.3s4.4,2,4.4,4.5C352.7,35,350.7,37,348.3,37L348.3,37z M350.2,32.6
					c0-1-0.8-1.8-1.8-1.8s-1.9,0.8-1.9,1.8s0.9,1.9,1.9,1.8C349.4,34.4,350.2,33.6,350.2,32.6L350.2,32.6z"/>
				<path d="M319,78c0,1.6-1.4,2.8-2.9,2.8s-2.8-1.4-2.8-2.9s1.4-2.8,2.9-2.8C317.8,75.1,319,76.4,319,78L319,78z"/>
				<path class="st0" d="M149.4,110.4c0,1.6,0,3,0,4.4c-0.1,5,0.1,10,1.4,14.9c0.5,1.9,1.2,3.8,2.1,5.5c2.3,4.3,6.2,6.1,10.9,6.6
					c6.4,0.8,12.4-0.7,18.1-3.6c3.7-1.9,7.4-3.9,11.1-5.8c6.4-3.2,13.2-3.9,20.2-2.9c5.6,0.8,11.1,1.9,16.3,4.2
					c1.2,0.5,2.3,1.1,3.4,1.8c0.3,0.2,0.6,0.8,0.6,1.1c-0.6,2.1,0.2,3.7,1.5,5.2c0.6,0.7,1.3,1.4,1.9,2.3c-0.2-0.1-0.5-0.1-0.7-0.2
					c-4.5-3.4-9.8-5.1-15.1-6.9c-2.5-0.8-5-1.4-7.5-2.1c-0.9-0.3-1.3-0.2-1.5,0.9c-0.2,0.9-0.2,1.3,0.9,1.6
					c5.3,1.6,10.6,3.4,15.8,5.2c0.3,0.1,0.7,0.3,1.1,0.5c-0.3,0.4-0.5,0.6-0.7,0.9c-1,1.3-1.2,2.8-0.3,4.2c0.8,1.2,1.8,2.2,2.8,3.3
					c0.2,0.3,0.6,0.4,0.9,0.6l-0.3,0.4c-0.8-0.4-1.6-0.7-2.3-1.2c-5.4-4.1-11.6-6.4-18-8.2c-0.7-0.2-1.1-0.1-1.2,0.7
					c0,0.6-0.8,1.4,0.5,1.9c3.9,1.4,7.7,2.9,11.5,4.3c0.9,0.3,1.2,0.7,0.9,1.8c-0.4,1.5,0.1,2.9,1,4.2c0.2,0.3,0.5,0.6,0.7,1.1
					c-4.8-3.3-10-5.7-15.7-7.1c-0.1,0.5-0.2,0.9-0.3,1.2c-0.3,0.9-0.1,1.2,0.9,1.5c1.9,0.5,3.6,1.2,5.5,1.9c0.4,0.1,0.8,0.3,1.1,0.5
					c-0.1,0.8-0.3,1.6-0.2,2.3s0.5,1.4,0.7,2.1c-1.7-0.3-3.4-0.7-5.1-0.9c-5.1-0.6-9.6,0.6-13.3,4.4c-5.4,5.6-11.5,10.2-18.6,13.4
					c-10.2,4.6-20.5,5.2-31.1,1.5c-8.1-2.9-15.3-6.9-21.2-13.2c-5.8-6.2-9.4-13.5-11.6-21.6c-1.7-6.2-2.2-12.6-2.7-19
					c-0.1-1.1-0.1-2.1-0.2-3.2c-0.1-0.8,0.2-1.2,1-1.4c6.8-1.7,13.5-3.5,20.2-5.3c4.5-1.2,9-2.4,13.5-3.5
					C148.6,110.6,148.9,110.5,149.4,110.4L149.4,110.4z"/>
				<path class="st0" d="M21.8,210.5l1.5,0.2c-0.5,0.1-0.8,0.2-1.1,0.2c-3.7,0.1-7.4,0.2-11,0.4c-0.9,0-1.2-0.3-1.2-1.1
					c0-4.1-0.3-8.3,0-12.4c0.7-9.2,2-18.3,2.7-27.4c0.6-8.2,0.3-16.3-0.7-24.5c-1.1-8.3-2.1-16.6-3.2-24.9
					c-1.1-8.1-2.2-16.3-3.2-24.4c-0.9-7.5-1.7-15-2.2-22.5C3,66,2.8,57.9,2.8,49.8c0-6.5,0.5-13,3-19C11.5,16.9,21.1,7.3,36.4,4.3
					c6.5-1.3,13-1.7,19.5-1.8c0.9,0,1.4,0.3,1.4,1.2c0,0.7,0.1,1.4,0.1,2.1c-3,0.3-5.9,0.5-8.7,0.9c-9.7,1.5-18.5,5-25.5,12.2
					c-4.9,5-7.7,11.1-9,18c-1.5,8.2-1.3,16.5-0.4,24.7c1.6,14.5,3.5,28.9,5.4,43.4c1,8.2,1.8,16.3,2.2,24.5
					c0.3,7.7,1.2,15.4,1.7,23.2c0.5,7.1,1.1,14.2,1.2,21.3c0.1,4.5-0.8,9-1.1,13.5c-0.5,7.4-1,14.8-1.5,22.2
					C21.7,209.9,21.8,210.2,21.8,210.5L21.8,210.5z"/>
				<path class="st0" d="M40.8,210.3c-5.6,0.2-11,0.4-16.5,0.6c0-0.5,0-0.9,0-1.3c0.8-10,1.7-19.9,2.2-29.9c0.3-5.3,0.3-10.6,0-15.9
					c-0.6-9.9-1.7-19.9-2.4-29.8c-0.4-5.1-0.3-10.2-0.8-15.2c-0.7-6.9-1.6-13.8-2.6-20.6c-1.9-13.6-4-27.1-4.7-40.8
					c-0.4-6.8-0.6-13.6,0.8-20.3c2.3-11.5,9.1-19.5,19.7-24.2c6.3-2.8,12.9-4.1,19.8-4.2c1,0,1.4,0.3,1.5,1.3c0,1.2,0.1,2.4,0.3,3.6
					c0.3,1.4-0.3,1.8-1.5,1.9c-5,0.7-9.7,2.2-14.1,4.5c-7.1,3.6-12.6,8.8-15.2,16.5c-1.2,3.5-1.7,7.2-1.5,10.9
					c0.5,9.4,1,18.8,1.9,28.2c1,10.2,2.3,20.4,3.5,30.6c1,8.7,2.2,17.4,3.2,26.1c1.1,10.1,2.2,20.2,3.2,30.2
					c0.7,7.1,1.5,14.1,2.1,21.2c0.5,5.8,0.6,11.6,0.9,17.4c0.1,2.7,0.2,5.4,0.3,8.1C40.8,209.4,40.8,209.7,40.8,210.3L40.8,210.3z"
					/>
				<path class="st0" d="M58.4,17.7c0.2,2,0.4,3.8,0.6,5.7c0.1,1.4,0.7,3,0.2,4s-2.2,1.4-3.4,2c-7.6,4.3-12,10.9-13.5,19.4
					c-0.6,3.4-0.7,6.9-0.6,10.3c0.5,14.6,1,29.2,1.7,43.7c0.3,7.1,0.9,14.2,1.7,21.4c0.5,5.2,1.6,10.4,2.1,15.6
					c0.7,7.8,1.2,15.5,1.5,23.3c0.3,7.5,1.2,14.9,2.2,22.3c1,7.7,1.9,15.4,2.9,23.2c0.1,0.8-0.1,1.2-1,1.2c-2.8,0.1-5.6,0.1-8.3,0.3
					c-1,0.1-1-0.6-1-1.2c-0.1-3.5-0.3-7-0.4-10.5c-0.2-11.6-1.5-23-2.7-34.5c-1.2-11.1-2.3-22.2-3.5-33.3c-1-8.7-2.2-17.3-3.2-26
					c-1.1-9.1-2.3-18.2-3.2-27.3c-0.9-9.8-1.5-19.6-2.1-29.4c-0.7-13.8,6.7-22.5,18-27.1c3.3-1.3,6.9-2,10.3-3
					C57.2,17.7,57.8,17.8,58.4,17.7L58.4,17.7z"/>
				<path class="st0" d="M61.8,212.2c-0.2,2.9-0.3,5.7-0.5,8.5c-0.1,1.6-0.2,3.2-0.4,4.8c-0.1,1,0.4,1.4,1.3,1.7
					c8.7,2.8,17.3,5.6,26,8.4c2,0.7,4,1.6,5.7,2.8c2.4,1.6,3.5,4.2,3.7,7.3c-0.6,0-1.1,0-1.5,0c-16.2,0-32.3,0-48.5,0
					c-1,0-1.6-0.3-2.1-1.2c-1.7-3-3.5-5.9-5.4-8.7c-0.6-0.9-1.3-1.7-2.1-2.4c-2-1.9-3.7-1.4-4.4,1.3c-0.4,1.6-0.6,3.4-0.8,5.1
					c-0.1,1.7,0,3.4,0,5.1c0,0.6-0.1,1.1-0.9,1.1c-4.8,0-9.5,0-14.2,0c-0.1,0-0.2-0.1-0.5-0.1c0.1-1.1,0.1-2.1,0.2-3.2
					c0.9-9.2,1.8-18.4,2.6-27.6c0.1-1,0.5-1.3,1.4-1.3c8.1-0.3,16.3-0.6,24.4-0.9c4.8-0.2,9.5-0.3,14.2-0.5
					C60.5,212.2,61,212.2,61.8,212.2L61.8,212.2z"/>
				<path class="st0" d="M196.5,38.3c2.6,6.1,6.1,11.3,12.4,14.3c-1,1.3-1.9,2.5-2.9,3.6c-1.5,1.6-3.1,3.2-4.8,4.6
					c-2.2,1.8-2.7,3.9-2,6.5c0.5,1.8,0.9,3.6,1.2,5.5c0.3,1.8-0.6,2.9-2.4,2.9c-1.1,0-2.4-0.3-3.4-0.8c-1.6-0.7-3.2-1.6-4.8-2.4
					c-1-0.5-1.7-0.5-2.7,0.1c-3.1,1.6-6.3,3.2-9.6,4.6c-2.6,1.1-5.1,0.4-7.3-1.4c-2.1-1.7-3.9-3.6-5.1-6c-0.2-0.4-0.8-0.8-1.2-0.9
					c-2.4-0.5-4.8-1.1-7.2-1.4c-1.2-0.2-1.3-0.7-1.3-1.7c0.2-4.6,0.5-9.2,0.3-13.7c-0.1-4.3-0.8-8.6-1.2-12.9c0-0.2,0-0.5-0.1-1
					c6.5,1.6,12.9,3.1,19.4,4.7c0.2-1.3,0.3-2.4,0.5-3.5c0.6-2.9,2.5-5,4.9-5.3c3-0.5,5.4,0.7,6.9,3.5c0.6,1,1.1,2.1,1.3,3.2
					c0.2,1.2,0.7,1.2,1.6,0.8C191.4,40.4,193.9,39.4,196.5,38.3L196.5,38.3z M188.6,50.7c0,3.3,3.4,7.8,6.7,8.9
					c2.3,0.8,4.4-0.2,5.4-2.4c0.7-1.6,0.4-3.1-0.5-4.5c-1.9-2.8-4.6-4.5-7.9-5.2C190,47.1,188.6,48.5,188.6,50.7z M186.1,65.9
					c-0.4-1.3-0.7-2.5-1.2-3.5c-0.6-1.2-1.5-1.5-2.4-0.6c-1.1,1.1-2.2,2.4-2.8,3.8c-0.9,1.9,0.1,3.8,2.1,4.8
					c1.2,0.6,2.3,0.4,2.9-0.8S185.6,67.1,186.1,65.9L186.1,65.9z"/>
				<path class="st0" d="M59.6,30.4c0.3,3,0.5,5.7,0.8,8.4c0.2,1.7,0.3,3.3,0.4,5c0,0.4-0.3,0.9-0.5,1.2c-0.7,1.1-1.6,2.1-2.2,3.3
					c-2.1,4.9-3,10.1-3.7,15.3c-1.5,11-1.7,22-0.9,33c0.5,7.3,1.3,14.7,1.9,22c0.8,10.1,1.6,20.1,2.2,30.2
					c0.9,13.7,1.7,27.4,2.4,41.1c0.3,6.1,0.2,12.3,0.3,18.5c0,0.9-0.2,1.2-1.1,1.2c-2.8,0.1-2.8,0.1-3.1-2.8
					c-1-8.7-2.3-17.4-3.2-26.1c-0.8-7-1.2-14.1-1.8-21.1c-0.8-10.1-1.5-20.1-2.4-30.2c-0.3-3.4-1.3-6.8-1.6-10.2
					c-0.6-7.2-1-14.4-1.3-21.7c-0.5-12.9-1-25.8-1.5-38.7c-0.2-5.8,0.4-11.5,3-16.7c2.4-4.8,5.9-8.6,10.7-11
					C58.4,30.9,58.9,30.7,59.6,30.4L59.6,30.4z"/>
				<path class="st0" d="M61.2,48.3c0.3,4.4,0.6,8.8,0.9,13.1c0.2,2.9,0.4,5.8,0.7,8.7c1.5,17.3,3.3,34.6,4.5,51.9
					c0.6,7.8,0.1,15.6,0.1,23.5c0,20.6,0,41.2,0.1,61.9c0,2.4,0,1.9-1.9,2c-2.8,0.2-2.8,0.1-2.8-2.7c0.1-15-0.9-30-1.8-45
					c-0.8-12.7-1.6-25.4-2.6-38c-0.6-8.2-1.5-16.3-2.2-24.4s-0.8-16.2-0.3-24.2c0.4-7,1.2-14,2.9-20.8c0.5-2,1.2-4,1.9-6L61.2,48.3
					L61.2,48.3z"/>
				<path class="st0" d="M245.7,129.3c-4.4,0.1-7.6-3-7-7.6c0.1-1.1,0.3-2.1,0.6-3.1c2.1-6.6,6.4-11.6,11.7-15.9
					c4-3.3,8.5-6,13.7-6.8c1.8-0.3,3.8-0.2,5.6,0.2c2.4,0.5,3.6,2.3,3.9,4.7c0.4,3.2-0.5,6.1-2,8.9c-5,9.2-12.3,15.7-22.3,18.9
					C248.5,128.9,247.1,129,245.7,129.3L245.7,129.3z M247.6,116.2c1.4-2,2.5-4,3.9-5.9c3.7-4.8,8-8.6,14.4-9c0.3,0,0.6-0.5,0.7-0.8
					c0.1-0.6,0-1.2,0-1.7c-9.1-0.5-17.7,8.5-21.1,16.4C246.3,115.5,247,115.8,247.6,116.2L247.6,116.2z"/>
				<path class="st0" d="M64.8,62.8c0.2,0,0.3,0,0.4,0c1.6,0.4,3.7,0.4,4.7,1.4c0.9,0.9,0.5,3,0.6,4.6c0.7,8.3,1.4,16.5,2.1,24.8
					c1.5,17.8,1.8,35.6,1.6,53.5c-0.2,16.4,0.4,32.9,0.7,49.3c0.1,3.9,0.2,7.7,0.4,11.5c0.1,0.9-0.2,1.3-1.2,1.3c-1.3,0-2.6,0-4.1,0
					c0-0.4-0.1-0.8-0.1-1.3c0-21.5-0.2-43,0.1-64.6c0.1-11.1,0.1-22.2-0.8-33.2C68.5,102,67.8,94,67,85.9
					c-0.7-7.2-1.4-14.5-2.1-21.7C64.8,63.8,64.8,63.3,64.8,62.8L64.8,62.8z"/>
				<path class="st0" d="M171.6,39.7l-3-0.7c0-0.2,0-0.4,0.1-0.5c3.2-6.4,7.4-11.8,14.1-14.9c10.7-4.9,25.5,0.1,29.2,13.2
					c1.3,4.5,0.4,8.8-1.6,13c-0.3,0.7-0.7,0.5-1.2,0.3c-3.4-1.6-5.9-4.2-7.8-7.4c-1.4-2.3-2.4-4.9-3.7-7.5l-8.2,3.4
					c-1.9-4.2-4.6-7.4-9.6-7.1C174.8,31.6,172.7,35.1,171.6,39.7L171.6,39.7z"/>
				<path class="st0" d="M80,208.8c-2.1,0.3-2.1,0.3-2.2-1.5c-0.9-20.6-1.4-41.2-1.2-61.8c0.1-9.3,0.2-18.7-0.1-28
					c-0.3-9.9-1.2-19.7-1.9-29.6c-0.5-6.9-1.2-13.7-1.7-20.6c-0.1-0.8,0-1.5,0-2.4c1.1,0.4,2,0.6,2.9,1.1c0.4,0.2,0.7,1,0.7,1.6
					c0.5,5.8,0.9,11.5,1.2,17.3c0.9,16.7,2.1,33.4,2.4,50.1c0.4,21.9-0.1,43.8-0.1,65.7C80,203.4,80,206.1,80,208.8L80,208.8z"/>
				<path class="st0" d="M71.7,227.6c2.1-0.4,3.8-0.9,5.8-0.2c9,3.1,18.1,5.9,27.2,8.9c3.7,1.2,6.5,3.6,7.5,7.6
					c0.1,0.6,0.2,1.1,0.3,1.9c-1.7,0-3.1,0-4.6,0c-2.2,0-4.4,0-6.6,0c-0.4,0-1-0.4-1.1-0.7c-0.9-6.6-5.1-10.1-11.2-11.9
					c-5.5-1.7-11-3.5-16.5-5.2C72.3,227.9,72.2,227.8,71.7,227.6L71.7,227.6z"/>
				<path class="st0" d="M277.4,102.3c0.3,1,0.7,1.9,0.9,2.9c0.4,2.7-0.3,5.3-1.5,7.7c-4.9,9.8-12.5,16.6-22.9,20
					c-2.3,0.8-4.8,1-7.2,0.2c-0.7-0.2-1.3-0.6-1.9-1.1c8.4-0.3,15-4.3,20.9-9.7c5.9-5.4,10.5-11.6,11.5-19.9L277.4,102.3
					L277.4,102.3z"/>
				<path class="st0" d="M76.6,211.9c-0.1,1.2-0.2,2.6-0.3,3.9c-0.1,2.4-0.3,4.7-0.4,7c0,0.8-0.3,1.2-1.1,1.5
					c-1.8,0.6-3.5,0.8-5.5,0.4c0.3-0.2,0.6-0.4,0.8-0.6c1-1.2,2.2-2.2,3-3.6c0.7-1.1,0.5-2.4-0.4-3.4s-2.2-1.3-3.4-0.8
					c-1.4,0.6-2.8,1.5-4.1,2.3c-0.3,0.2-0.6,0.5-1.3,1c0.2-2.6,0.3-4.9,0.5-7.1c0-0.2,0.4-0.4,0.7-0.4c3.7-0.1,7.4-0.2,11.2-0.4
					C76.3,211.7,76.4,211.8,76.6,211.9L76.6,211.9z"/>
				<path class="st0" d="M236.8,150.6c-0.4,0.1-0.9,0.5-1.1,0.4c-2.1-0.9-3.6-2.4-4.6-4.5c-0.2-0.3,0.2-1.2,0.5-1.4
					c0.5-0.3,1.3-0.5,1.7-0.3C235.2,146.1,236.3,147.9,236.8,150.6z"/>
				<path class="st0" d="M211.3,161.2l-5.6,5.6l-1.8-1.6C205.6,161.9,207.9,160.6,211.3,161.2z"/>
				<path class="st0" d="M64.2,223.6c1.4-2.2,3.2-4,5.8-4.8c0.3-0.1,0.8,0.1,0.9,0.2c0.1,0.3,0.1,0.9-0.2,1.1
					c-1.3,1.1-2.6,2.2-4,3.1c-0.7,0.4-1.6,0.6-2.3,0.8L64.2,223.6L64.2,223.6z"/>
				<path class="st0" d="M79.7,223.7c1.2-2.2,2.9-3.8,5.1-4.8c0.4-0.2,1-0.1,1.4-0.1c-0.1,0.5-0.1,1-0.3,1.4
					C84.5,222.3,82.3,223.3,79.7,223.7L79.7,223.7z"/>
				<path class="st0" d="M235.7,134.3c1.5-1.5,2.7-2.6,4-3.9l1.1,1.3c-1.1,1-2,2.1-3.1,2.9C237.4,135,236.6,134.5,235.7,134.3
					L235.7,134.3z"/>
				<path class="st0" d="M231.2,156.6c-2.6,0.1-5.2-2.3-4.8-4.6C228.2,153.2,230.2,154.3,231.2,156.6z"/>
				<path class="st0" d="M205.9,62.2c-0.9,1.1-1.8,2-2.6,3c-0.2-0.6-2-1-0.8-2.1C204.7,61,204.4,60.8,205.9,62.2L205.9,62.2z"/>
				<path class="st0" d="M219.4,156.2l4,2.8C221.1,159.5,219,158.1,219.4,156.2z"/>
				<path class="st0" d="M236.2,137.8c1.4,1,2.8,2,2.9,3.9C237.6,140.8,236.3,139.8,236.2,137.8z"/>
				<path class="st0" d="M350.2,32.6c0,1-0.8,1.8-1.8,1.8s-1.9-0.8-1.9-1.8s0.8-1.9,1.9-1.8C349.4,30.8,350.2,31.6,350.2,32.6
					L350.2,32.6z"/>
				<path d="M188.6,50.7c0-2.3,1.4-3.6,3.6-3.2c3.3,0.7,6,2.4,7.9,5.2c0.9,1.4,1.3,2.9,0.5,4.5c-1,2.2-3.1,3.1-5.4,2.4
					C191.9,58.5,188.6,54,188.6,50.7z M196.5,52.2c-1.4-0.7-2.9-1.5-4.4-2.1c-0.9-0.4-1.1,0.2-1,1c0.3,1.8,1.3,3.2,2.3,4.2
					C194.5,54.3,195.4,53.4,196.5,52.2z"/>
				<path d="M186.1,65.9c-0.5,1.2-0.8,2.6-1.4,3.8c-0.6,1.2-1.7,1.3-2.9,0.8c-1.9-0.9-2.9-2.8-2.1-4.8c0.6-1.4,1.7-2.7,2.8-3.8
					c0.9-0.9,1.8-0.6,2.4,0.6C185.4,63.4,185.7,64.6,186.1,65.9L186.1,65.9z"/>
				<path d="M247.6,116.2c-0.7-0.3-1.3-0.7-1.9-1c3.3-7.8,12-16.8,21.1-16.4c0,0.6,0.1,1.2,0,1.7c-0.1,0.3-0.5,0.8-0.7,0.8
					c-6.4,0.4-10.8,4.2-14.4,9C250.2,112.1,249,114.1,247.6,116.2L247.6,116.2z"/>
				<path class="st0" d="M196.5,52.2c-1.1,1.2-2,2.1-3.1,3.1c-1-1-2-2.4-2.3-4.2c-0.1-0.8,0.1-1.4,1-1
					C193.7,50.8,195.2,51.6,196.5,52.2z"/>
				<g>
					<path d="M121.3,201.7l8.1,12.3v-12.4c0-0.8,0.2-1.4,0.5-1.8c0.3-0.4,0.8-0.6,1.4-0.6c0.6,0,1.1,0.2,1.4,0.6
						c0.4,0.4,0.5,1,0.5,1.8V218c0,1.8-0.8,2.7-2.3,2.7c-0.4,0-0.7-0.1-1-0.2c-0.3-0.1-0.6-0.3-0.9-0.5c-0.3-0.2-0.5-0.5-0.7-0.8
						s-0.5-0.6-0.7-1l-7.9-12.1v12.2c0,0.8-0.2,1.4-0.6,1.8s-0.8,0.6-1.4,0.6c-0.6,0-1.1-0.2-1.4-0.6c-0.4-0.4-0.5-1-0.5-1.8v-16.1
						c0-0.7,0.1-1.2,0.2-1.6c0.2-0.4,0.5-0.8,0.9-1c0.4-0.3,0.9-0.4,1.4-0.4c0.4,0,0.7,0.1,1,0.2s0.5,0.3,0.7,0.5
						c0.2,0.2,0.4,0.5,0.6,0.8C120.9,201,121.1,201.3,121.3,201.7z"/>
					<path d="M152.2,212.8c0,1.2-0.2,2.2-0.5,3.2c-0.4,1-0.9,1.8-1.6,2.5c-0.7,0.7-1.5,1.2-2.4,1.6c-0.9,0.4-2,0.6-3.2,0.6
						c-1.2,0-2.2-0.2-3.2-0.6c-0.9-0.4-1.8-0.9-2.4-1.6s-1.2-1.5-1.6-2.5c-0.4-1-0.5-2-0.5-3.2c0-1.2,0.2-2.3,0.5-3.2
						c0.4-1,0.9-1.8,1.5-2.5c0.7-0.7,1.5-1.2,2.4-1.6s2-0.6,3.2-0.6c1.2,0,2.2,0.2,3.2,0.6c1,0.4,1.8,0.9,2.5,1.6
						c0.7,0.7,1.2,1.5,1.6,2.5S152.2,211.6,152.2,212.8z M148.3,212.8c0-1.6-0.3-2.8-1-3.7c-0.7-0.9-1.6-1.3-2.8-1.3
						c-0.8,0-1.4,0.2-2,0.6c-0.6,0.4-1,1-1.3,1.7s-0.5,1.7-0.5,2.7c0,1,0.2,1.9,0.5,2.7c0.3,0.8,0.7,1.3,1.3,1.7
						c0.6,0.4,1.2,0.6,2,0.6c1.2,0,2.1-0.4,2.8-1.3C147.9,215.6,148.3,214.4,148.3,212.8z"/>
					<path d="M170.9,212.2H167v5.9c0,0.8-0.2,1.5-0.6,1.9c-0.4,0.4-0.9,0.7-1.5,0.7c-0.6,0-1.1-0.2-1.5-0.6
						c-0.4-0.4-0.6-1.1-0.6-1.9v-16.1c0-0.9,0.2-1.6,0.6-2c0.4-0.4,1.1-0.6,2-0.6h5.4c1.6,0,2.8,0.1,3.7,0.4
						c0.9,0.2,1.6,0.6,2.2,1.2s1.1,1.2,1.4,2c0.3,0.8,0.5,1.7,0.5,2.7c0,2.1-0.7,3.7-2,4.8S173.5,212.2,170.9,212.2z M169.8,202.7
						H167v6.4h2.8c1,0,1.8-0.1,2.5-0.3c0.7-0.2,1.2-0.5,1.5-1s0.5-1.1,0.5-1.9c0-0.9-0.3-1.7-0.8-2.2
						C173,203,171.7,202.7,169.8,202.7z"/>
					<path d="M185.8,215.1v3.2c0,0.8-0.2,1.4-0.6,1.8c-0.4,0.4-0.8,0.6-1.4,0.6c-0.6,0-1-0.2-1.4-0.6c-0.4-0.4-0.5-1-0.5-1.8v-10.8
						c0-1.7,0.6-2.6,1.9-2.6c0.6,0,1.1,0.2,1.4,0.6c0.3,0.4,0.4,1,0.5,1.8c0.5-0.8,0.9-1.4,1.4-1.8c0.5-0.4,1.1-0.6,2-0.6
						s1.6,0.2,2.4,0.6s1.2,0.9,1.2,1.6c0,0.5-0.2,0.9-0.5,1.2c-0.3,0.3-0.7,0.5-1.1,0.5c-0.1,0-0.5-0.1-1-0.3
						c-0.5-0.2-1-0.3-1.4-0.3c-0.6,0-1,0.1-1.4,0.4c-0.4,0.3-0.6,0.7-0.8,1.3c-0.2,0.6-0.3,1.3-0.4,2.1
						C185.8,212.9,185.8,213.9,185.8,215.1z"/>
					<path d="M208.1,212.8c0,1.2-0.2,2.2-0.5,3.2c-0.4,1-0.9,1.8-1.6,2.5c-0.7,0.7-1.5,1.2-2.4,1.6c-0.9,0.4-2,0.6-3.2,0.6
						c-1.2,0-2.2-0.2-3.2-0.6c-0.9-0.4-1.8-0.9-2.4-1.6s-1.2-1.5-1.6-2.5c-0.4-1-0.5-2-0.5-3.2c0-1.2,0.2-2.3,0.5-3.2
						c0.4-1,0.9-1.8,1.5-2.5c0.7-0.7,1.5-1.2,2.4-1.6s2-0.6,3.2-0.6c1.2,0,2.2,0.2,3.2,0.6c1,0.4,1.8,0.9,2.5,1.6
						c0.7,0.7,1.2,1.5,1.6,2.5S208.1,211.6,208.1,212.8z M204.2,212.8c0-1.6-0.3-2.8-1-3.7c-0.7-0.9-1.6-1.3-2.8-1.3
						c-0.8,0-1.4,0.2-2,0.6c-0.6,0.4-1,1-1.3,1.7s-0.5,1.7-0.5,2.7c0,1,0.2,1.9,0.5,2.7c0.3,0.8,0.7,1.3,1.3,1.7
						c0.6,0.4,1.2,0.6,2,0.6c1.2,0,2.1-0.4,2.8-1.3C203.9,215.6,204.2,214.4,204.2,212.8z"/>
					<path d="M221.8,218.5v-0.4c-0.5,0.6-1,1.1-1.5,1.5c-0.5,0.4-1.1,0.7-1.6,0.9c-0.6,0.2-1.2,0.3-1.9,0.3c-0.9,0-1.8-0.2-2.6-0.6
						c-0.8-0.4-1.5-1-2.1-1.7s-1-1.6-1.3-2.6c-0.3-1-0.4-2.1-0.4-3.2c0-2.4,0.6-4.3,1.8-5.7c1.2-1.4,2.7-2,4.7-2
						c1.1,0,2.1,0.2,2.8,0.6c0.8,0.4,1.5,1,2.2,1.8v-5.7c0-0.8,0.2-1.4,0.5-1.8c0.3-0.4,0.8-0.6,1.4-0.6c0.6,0,1,0.2,1.4,0.6
						c0.3,0.4,0.5,0.9,0.5,1.7v17.1c0,0.7-0.2,1.3-0.5,1.7c-0.3,0.4-0.8,0.6-1.3,0.6c-0.5,0-1-0.2-1.3-0.6
						C222,219.7,221.8,219.2,221.8,218.5z M214.2,212.8c0,1.1,0.2,1.9,0.5,2.7c0.3,0.7,0.8,1.3,1.3,1.7c0.6,0.4,1.2,0.6,1.9,0.6
						c0.7,0,1.3-0.2,1.9-0.5s1-0.9,1.4-1.6c0.3-0.7,0.5-1.7,0.5-2.8c0-1-0.2-1.9-0.5-2.7c-0.3-0.7-0.8-1.3-1.4-1.7
						c-0.6-0.4-1.2-0.6-1.9-0.6c-0.7,0-1.3,0.2-1.9,0.6c-0.6,0.4-1,1-1.3,1.7C214.3,210.9,214.2,211.8,214.2,212.8z"/>
					<path d="M239.4,218.5V218c-0.5,0.6-1,1.1-1.5,1.5c-0.5,0.4-1.1,0.7-1.7,0.9c-0.6,0.2-1.3,0.3-2.1,0.3c-0.9,0-1.8-0.2-2.5-0.6
						c-0.7-0.4-1.3-0.9-1.7-1.6c-0.5-0.8-0.7-2-0.7-3.6v-7.7c0-0.8,0.2-1.4,0.5-1.7s0.8-0.6,1.4-0.6c0.6,0,1.1,0.2,1.4,0.6
						s0.5,1,0.5,1.7v6.2c0,0.9,0.1,1.7,0.2,2.3c0.2,0.6,0.4,1.1,0.8,1.4c0.4,0.3,0.9,0.5,1.6,0.5c0.7,0,1.3-0.2,1.8-0.6
						c0.6-0.4,1-0.9,1.3-1.5c0.2-0.5,0.3-1.8,0.3-3.6v-4.7c0-0.8,0.2-1.3,0.5-1.7s0.8-0.6,1.4-0.6s1,0.2,1.4,0.6s0.5,1,0.5,1.7v11.2
						c0,0.7-0.2,1.3-0.5,1.7c-0.3,0.4-0.8,0.6-1.3,0.6c-0.5,0-1-0.2-1.3-0.6S239.4,219.2,239.4,218.5z"/>
					<path d="M260.8,215.9c0,0.5-0.1,1-0.4,1.5c-0.3,0.5-0.7,1.1-1.3,1.6c-0.6,0.5-1.3,0.9-2.2,1.2c-0.9,0.3-1.9,0.5-3,0.5
						c-2.4,0-4.3-0.7-5.6-2.1c-1.3-1.4-2-3.3-2-5.6c0-1.6,0.3-3,0.9-4.2c0.6-1.2,1.5-2.2,2.7-2.8c1.2-0.7,2.6-1,4.2-1
						c1,0,1.9,0.1,2.8,0.4c0.8,0.3,1.5,0.7,2.1,1.1c0.6,0.5,1,1,1.3,1.5c0.3,0.5,0.5,1,0.5,1.5c0,0.5-0.2,0.9-0.5,1.2
						c-0.3,0.3-0.8,0.5-1.3,0.5c-0.3,0-0.6-0.1-0.8-0.2s-0.5-0.4-0.7-0.8c-0.5-0.7-1-1.3-1.5-1.6c-0.5-0.4-1.2-0.5-2-0.5
						c-1.1,0-2.1,0.4-2.8,1.3s-1.1,2.1-1.1,3.7c0,0.7,0.1,1.4,0.3,2c0.2,0.6,0.4,1.1,0.8,1.6c0.3,0.4,0.8,0.8,1.2,1s1,0.3,1.6,0.3
						c0.8,0,1.4-0.2,2-0.5c0.6-0.4,1-0.9,1.5-1.6c0.2-0.4,0.5-0.8,0.8-1c0.3-0.2,0.6-0.4,1-0.4c0.5,0,0.9,0.2,1.2,0.5
						C260.7,215.1,260.8,215.5,260.8,215.9z"/>
					<path d="M264.4,205.3h0.4v-2.3c0-0.6,0-1.1,0-1.5s0.1-0.7,0.3-0.9c0.2-0.3,0.4-0.5,0.7-0.6c0.3-0.2,0.6-0.2,1-0.2
						c0.5,0,0.9,0.2,1.3,0.6c0.3,0.2,0.4,0.5,0.5,0.9c0.1,0.4,0.1,0.9,0.1,1.5v2.6h1.4c0.5,0,1,0.1,1.3,0.4c0.3,0.3,0.4,0.6,0.4,1
						c0,0.5-0.2,0.9-0.6,1.1c-0.4,0.2-1,0.3-1.8,0.3h-0.7v7.1c0,0.6,0,1.1,0.1,1.4c0,0.3,0.2,0.6,0.3,0.8c0.2,0.2,0.5,0.3,0.9,0.3
						c0.2,0,0.5,0,0.9-0.1c0.4-0.1,0.7-0.1,0.9-0.1c0.3,0,0.6,0.1,0.8,0.4s0.4,0.6,0.4,0.9c0,0.6-0.3,1.1-1,1.4
						c-0.7,0.3-1.7,0.5-2.9,0.5c-1.2,0-2.1-0.2-2.8-0.6c-0.6-0.4-1-1-1.2-1.7c-0.2-0.7-0.3-1.7-0.3-2.9v-7.4h-0.5
						c-0.6,0-1-0.1-1.3-0.4s-0.4-0.6-0.4-1s0.2-0.7,0.5-1C263.4,205.4,263.9,205.3,264.4,205.3z"/>
					<path d="M287,215.6c0,1.1-0.3,2-0.8,2.8c-0.5,0.8-1.3,1.3-2.3,1.7c-1,0.4-2.3,0.6-3.7,0.6c-1.4,0-2.6-0.2-3.6-0.6
						c-1-0.4-1.7-1-2.2-1.6c-0.5-0.6-0.7-1.3-0.7-1.9c0-0.4,0.2-0.8,0.5-1.1c0.3-0.3,0.7-0.5,1.2-0.5c0.4,0,0.7,0.1,0.9,0.3
						c0.2,0.2,0.4,0.5,0.6,0.8c0.4,0.7,0.9,1.2,1.4,1.5c0.6,0.3,1.3,0.5,2.3,0.5c0.8,0,1.4-0.2,1.9-0.5c0.5-0.3,0.7-0.7,0.7-1.2
						c0-0.7-0.3-1.2-0.8-1.5s-1.4-0.6-2.6-0.9c-1.3-0.3-2.4-0.7-3.3-1c-0.8-0.4-1.5-0.8-2-1.4c-0.5-0.6-0.8-1.3-0.8-2.2
						c0-0.8,0.2-1.5,0.7-2.2c0.5-0.7,1.1-1.2,2.1-1.7c0.9-0.4,2-0.6,3.3-0.6c1,0,1.9,0.1,2.7,0.3c0.8,0.2,1.5,0.5,2,0.8
						c0.5,0.4,0.9,0.7,1.2,1.2c0.3,0.4,0.4,0.8,0.4,1.3c0,0.4-0.1,0.8-0.4,1.1s-0.7,0.4-1.3,0.4c-0.4,0-0.7-0.1-1-0.3
						c-0.3-0.2-0.6-0.6-1-1c-0.3-0.4-0.6-0.7-1-0.9c-0.4-0.2-0.9-0.3-1.6-0.3c-0.7,0-1.3,0.1-1.7,0.4c-0.5,0.3-0.7,0.7-0.7,1.1
						c0,0.4,0.2,0.7,0.5,1s0.8,0.5,1.4,0.6s1.4,0.4,2.4,0.6c1.2,0.3,2.2,0.6,2.9,1.1c0.8,0.4,1.3,0.9,1.7,1.4
						C286.8,214.3,287,214.9,287,215.6z"/>
					<path d="M311.2,218l-1-2.6h-8.5l-1,2.7c-0.4,1-0.7,1.7-1,2.1c-0.3,0.4-0.7,0.5-1.4,0.5c-0.5,0-1-0.2-1.4-0.6s-0.6-0.8-0.6-1.3
						c0-0.3,0-0.6,0.1-0.9c0.1-0.3,0.3-0.7,0.5-1.3l5.3-13.5c0.2-0.4,0.3-0.9,0.5-1.4s0.4-1,0.7-1.4c0.2-0.4,0.6-0.7,1-0.9
						c0.4-0.2,0.9-0.3,1.5-0.3c0.6,0,1.1,0.1,1.5,0.3s0.7,0.5,1,0.9c0.2,0.4,0.4,0.7,0.6,1.1c0.2,0.4,0.4,0.9,0.6,1.6l5.4,13.4
						c0.4,1,0.6,1.8,0.6,2.2c0,0.5-0.2,0.9-0.6,1.3c-0.4,0.4-0.9,0.6-1.5,0.6c-0.3,0-0.6-0.1-0.9-0.2c-0.2-0.1-0.4-0.3-0.6-0.5
						c-0.2-0.2-0.3-0.5-0.5-0.9C311.5,218.7,311.3,218.3,311.2,218z M302.8,212.2h6.2l-3.1-8.6L302.8,212.2z"/>
					<path d="M320.5,207.3l3.1,8.8l3.4-9.2c0.3-0.7,0.5-1.3,0.8-1.6s0.6-0.5,1.2-0.5c0.5,0,0.9,0.2,1.3,0.5c0.3,0.3,0.5,0.7,0.5,1.2
						c0,0.2,0,0.4-0.1,0.6c-0.1,0.2-0.1,0.4-0.2,0.6c-0.1,0.2-0.2,0.4-0.3,0.7l-3.7,9.2c-0.1,0.3-0.2,0.6-0.4,1
						c-0.2,0.4-0.4,0.8-0.6,1c-0.2,0.3-0.5,0.5-0.8,0.7c-0.3,0.2-0.7,0.2-1.1,0.2c-0.5,0-1-0.1-1.3-0.4c-0.3-0.3-0.6-0.5-0.7-0.8
						s-0.4-0.9-0.8-1.8l-3.7-9.1c-0.1-0.2-0.2-0.5-0.3-0.7c-0.1-0.2-0.2-0.5-0.2-0.7c-0.1-0.2-0.1-0.4-0.1-0.6
						c0-0.3,0.1-0.5,0.2-0.8s0.4-0.5,0.7-0.6s0.6-0.2,0.9-0.2c0.6,0,1.1,0.2,1.3,0.6C320,205.8,320.2,206.5,320.5,207.3z"/>
					<path d="M343,218.5c-0.9,0.7-1.8,1.3-2.7,1.6c-0.9,0.4-1.9,0.5-2.9,0.5c-1,0-1.9-0.2-2.6-0.6c-0.8-0.4-1.3-0.9-1.7-1.6
						c-0.4-0.7-0.6-1.4-0.6-2.2c0-1.1,0.3-2,1-2.7c0.7-0.7,1.6-1.3,2.8-1.5c0.2-0.1,0.9-0.2,1.8-0.4c1-0.2,1.8-0.4,2.5-0.5
						c0.7-0.2,1.5-0.4,2.3-0.6c0-1-0.3-1.8-0.6-2.3c-0.4-0.5-1.1-0.7-2.3-0.7c-1,0-1.7,0.1-2.2,0.4c-0.5,0.3-0.9,0.7-1.3,1.2
						c-0.4,0.5-0.6,0.9-0.8,1.1c-0.1,0.2-0.5,0.3-0.9,0.3c-0.4,0-0.8-0.1-1.1-0.4s-0.5-0.6-0.5-1.1c0-0.7,0.2-1.3,0.7-2
						c0.5-0.6,1.2-1.2,2.3-1.6s2.3-0.6,3.8-0.6c1.7,0,3,0.2,4,0.6c1,0.4,1.7,1,2.1,1.9c0.4,0.9,0.6,2,0.6,3.5c0,0.9,0,1.7,0,2.3
						c0,0.6,0,1.3,0,2.1c0,0.7,0.1,1.5,0.4,2.3c0.2,0.8,0.4,1.3,0.4,1.5c0,0.4-0.2,0.8-0.6,1.1c-0.4,0.3-0.8,0.5-1.3,0.5
						c-0.4,0-0.8-0.2-1.2-0.6S343.4,219.2,343,218.5z M342.7,212.9c-0.6,0.2-1.4,0.4-2.5,0.7s-1.8,0.4-2.3,0.5
						c-0.4,0.1-0.8,0.3-1.2,0.6s-0.6,0.8-0.6,1.3c0,0.6,0.2,1.1,0.7,1.5c0.4,0.4,1,0.6,1.7,0.6c0.8,0,1.5-0.2,2.1-0.5
						c0.6-0.3,1.1-0.8,1.4-1.3c0.3-0.6,0.5-1.6,0.5-2.9V212.9z"/>
					<path d="M352.5,203.1c-0.5,0-1-0.2-1.4-0.5s-0.6-0.8-0.6-1.4c0-0.5,0.2-1,0.6-1.4c0.4-0.4,0.9-0.5,1.4-0.5
						c0.5,0,0.9,0.2,1.3,0.5s0.6,0.8,0.6,1.4c0,0.6-0.2,1.1-0.6,1.4C353.4,202.9,353,203.1,352.5,203.1z M354.4,207.1v11.2
						c0,0.8-0.2,1.4-0.6,1.8c-0.4,0.4-0.8,0.6-1.4,0.6s-1-0.2-1.4-0.6s-0.5-1-0.5-1.7v-11.1c0-0.8,0.2-1.3,0.5-1.7s0.8-0.6,1.4-0.6
						s1,0.2,1.4,0.6C354.2,205.9,354.4,206.4,354.4,207.1z"/>
					<path d="M358.4,218.3v-16.8c0-0.8,0.2-1.4,0.5-1.8c0.3-0.4,0.8-0.6,1.4-0.6s1.1,0.2,1.4,0.6c0.4,0.4,0.5,1,0.5,1.8v16.8
						c0,0.8-0.2,1.4-0.5,1.8c-0.4,0.4-0.8,0.6-1.4,0.6c-0.6,0-1-0.2-1.4-0.6S358.4,219.1,358.4,218.3z"/>
					<path d="M376.1,218.5c-0.9,0.7-1.8,1.3-2.7,1.6c-0.9,0.4-1.9,0.5-2.9,0.5c-1,0-1.9-0.2-2.6-0.6c-0.8-0.4-1.3-0.9-1.7-1.6
						c-0.4-0.7-0.6-1.4-0.6-2.2c0-1.1,0.3-2,1-2.7c0.7-0.7,1.6-1.3,2.8-1.5c0.2-0.1,0.9-0.2,1.8-0.4c1-0.2,1.8-0.4,2.5-0.5
						c0.7-0.2,1.5-0.4,2.3-0.6c0-1-0.3-1.8-0.6-2.3c-0.4-0.5-1.1-0.7-2.3-0.7c-1,0-1.7,0.1-2.2,0.4c-0.5,0.3-0.9,0.7-1.3,1.2
						c-0.4,0.5-0.6,0.9-0.8,1.1c-0.1,0.2-0.5,0.3-0.9,0.3c-0.4,0-0.8-0.1-1.1-0.4s-0.5-0.6-0.5-1.1c0-0.7,0.2-1.3,0.7-2
						c0.5-0.6,1.2-1.2,2.3-1.6s2.3-0.6,3.8-0.6c1.7,0,3,0.2,4,0.6c1,0.4,1.7,1,2.1,1.9c0.4,0.9,0.6,2,0.6,3.5c0,0.9,0,1.7,0,2.3
						c0,0.6,0,1.3,0,2.1c0,0.7,0.1,1.5,0.4,2.3c0.2,0.8,0.4,1.3,0.4,1.5c0,0.4-0.2,0.8-0.6,1.1c-0.4,0.3-0.8,0.5-1.3,0.5
						c-0.4,0-0.8-0.2-1.2-0.6S376.5,219.2,376.1,218.5z M375.8,212.9c-0.6,0.2-1.4,0.4-2.5,0.7s-1.8,0.4-2.3,0.5
						c-0.4,0.1-0.8,0.3-1.2,0.6s-0.6,0.8-0.6,1.3c0,0.6,0.2,1.1,0.7,1.5c0.4,0.4,1,0.6,1.7,0.6c0.8,0,1.5-0.2,2.1-0.5
						c0.6-0.3,1.1-0.8,1.4-1.3c0.3-0.6,0.5-1.6,0.5-2.9V212.9z"/>
					<path d="M386.8,201.4v5.9c0.7-0.8,1.5-1.3,2.2-1.7c0.8-0.4,1.7-0.6,2.8-0.6c1.3,0,2.4,0.3,3.4,0.9c1,0.6,1.7,1.5,2.3,2.7
						c0.5,1.2,0.8,2.5,0.8,4.1c0,1.2-0.1,2.3-0.4,3.2c-0.3,1-0.7,1.8-1.3,2.6c-0.6,0.7-1.3,1.3-2.1,1.7c-0.8,0.4-1.7,0.6-2.7,0.6
						c-0.6,0-1.2-0.1-1.7-0.2c-0.5-0.1-1-0.3-1.3-0.6c-0.4-0.2-0.7-0.5-0.9-0.7c-0.3-0.2-0.6-0.6-1-1.1v0.4c0,0.7-0.2,1.3-0.5,1.7
						c-0.4,0.4-0.8,0.6-1.3,0.6c-0.5,0-1-0.2-1.3-0.6s-0.5-0.9-0.5-1.7v-16.9c0-0.8,0.2-1.4,0.5-1.8c0.3-0.4,0.8-0.6,1.3-0.6
						c0.6,0,1.1,0.2,1.4,0.6S386.8,200.7,386.8,201.4z M386.9,212.9c0,1.5,0.4,2.7,1.1,3.6c0.7,0.8,1.6,1.2,2.8,1.2
						c1,0,1.8-0.4,2.5-1.3c0.7-0.8,1.1-2.1,1.1-3.6c0-1-0.1-1.9-0.4-2.6c-0.3-0.7-0.7-1.3-1.3-1.7c-0.5-0.4-1.2-0.6-1.9-0.6
						c-0.7,0-1.4,0.2-2,0.6c-0.6,0.4-1,1-1.4,1.7C387.1,210.9,386.9,211.8,386.9,212.9z"/>
					<path d="M401,218.3v-16.8c0-0.8,0.2-1.4,0.5-1.8c0.3-0.4,0.8-0.6,1.4-0.6s1.1,0.2,1.4,0.6c0.4,0.4,0.5,1,0.5,1.8v16.8
						c0,0.8-0.2,1.4-0.5,1.8c-0.4,0.4-0.8,0.6-1.4,0.6c-0.6,0-1-0.2-1.4-0.6S401,219.1,401,218.3z"/>
					<path d="M419.7,213.8h-7.6c0,0.9,0.2,1.7,0.5,2.3c0.3,0.7,0.8,1.2,1.4,1.5c0.6,0.3,1.2,0.5,1.9,0.5c0.5,0,0.9-0.1,1.3-0.2
						c0.4-0.1,0.8-0.3,1.1-0.5c0.4-0.2,0.7-0.5,1-0.7c0.3-0.3,0.7-0.6,1.2-1.1c0.2-0.2,0.5-0.3,0.9-0.3c0.4,0,0.7,0.1,1,0.3
						c0.2,0.2,0.4,0.5,0.4,0.9c0,0.4-0.1,0.8-0.4,1.2c-0.3,0.5-0.7,0.9-1.2,1.3c-0.6,0.4-1.2,0.8-2.1,1.1s-1.8,0.4-2.9,0.4
						c-2.5,0-4.4-0.7-5.8-2.1c-1.4-1.4-2.1-3.3-2.1-5.8c0-1.1,0.2-2.2,0.5-3.2s0.8-1.8,1.5-2.5c0.7-0.7,1.5-1.2,2.4-1.6
						c1-0.4,2-0.6,3.2-0.6c1.5,0,2.8,0.3,3.9,1s1.9,1.5,2.4,2.5c0.5,1,0.8,2,0.8,3.1c0,1-0.3,1.6-0.8,1.9
						C421.5,213.6,420.7,213.8,419.7,213.8z M412.1,211.6h7c-0.1-1.3-0.5-2.3-1.1-3c-0.6-0.7-1.4-1-2.5-1c-1,0-1.8,0.3-2.4,1
						C412.6,209.3,412.3,210.3,412.1,211.6z"/>
				</g>
			</g>
		</g>
	</g>
</g>
</svg>
