<?xml version="1.0" encoding="UTF-8"?><svg id="Layer_2" xmlns="http://www.w3.org/2000/svg" xmlns:xlink="http://www.w3.org/1999/xlink" viewBox="0 0 269.3 266.1"><defs><style>.cls-1{fill:url(#linear-gradient);}.cls-2{fill:url(#linear-gradient-3);}.cls-3{fill:url(#linear-gradient-4);}.cls-4{fill:url(#linear-gradient-2);}</style><linearGradient id="linear-gradient" x1="16.54" y1="51.42" x2="252.17" y2="-196.91" gradientTransform="translate(0 60) scale(1 -1)" gradientUnits="userSpaceOnUse"><stop offset="0" stop-color="#ebe9e5"/><stop offset="1" stop-color="#98866f"/></linearGradient><linearGradient id="linear-gradient-2" x1="64.16" y1="96.59" x2="299.79" y2="-151.74" xlink:href="#linear-gradient"/><linearGradient id="linear-gradient-3" x1="22.06" y1="56.65" x2="257.69" y2="-191.68" xlink:href="#linear-gradient"/><linearGradient id="linear-gradient-4" x1="-47.35" y1="-9.21" x2="188.28" y2="-257.54" xlink:href="#linear-gradient"/></defs><g id="Layer_1-2"><g id="b"><g id="c"><g><path class="cls-1" d="M269.3,266.1H0V0H269.3V266.1ZM11.3,254.7h246.7V11.3H11.3V254.7Z"/><g><path class="cls-4" d="M182.4,50.3c27.8,0,51.5,17.1,61.4,41.3V25.2H25.5v25l156.9,.1h0Z"/><path class="cls-2" d="M214,116.6c0-18.7-15.1-33.8-33.8-33.8H25.5v26.7c91,8.4,170.1,58.1,218.4,130.1v-98.2c-6.3,15.5-18.1,28.2-33.2,35.3-10.1-9.4-20.7-18.1-32-26.1h1.5c18.7-.2,33.8-15.3,33.8-34h0Z"/><path class="cls-3" d="M25.5,142.5v98.3H204c-42.8-53.9-106.3-90.7-178.5-98.3h0Z"/></g></g></g></g></g></svg>