<svg xmlns="http://www.w3.org/2000/svg" viewBox="0 0 229.33 352.95"><defs><style>.cls-1{fill:#737373;}</style></defs><g id="Layer_2" data-name="Layer 2"><g id="Layer_1-2" data-name="Layer 1"><g id="ELtDKV"><path class="cls-1" d="M123.11,0c0,18.28.59,36.24-.22,54.15-.49,10.82-6.61,19.68-14.27,27.31q-25.49,25.4-50.87,50.92a73.28,73.28,0,0,0-5.44,5.85c-5.84,7.34-6,15.12,0,22.31,4.28,5.08,9.13,9.69,13.84,14.41Q84.56,193.34,103,211.64c4.83,4.83,4.78,5.45-.16,10.36-8.28,8.21-16.6,16.39-24.71,24.77-2.91,3-5,2.84-7.83-.05-17.18-17.45-34.69-34.59-51.7-52.2C-5.76,169.27-6.44,130.35,18,105.1,52,70,86.8,35.82,121.28,1.26A11.34,11.34,0,0,1,123.11,0Z"/><path class="cls-1" d="M106.38,353c0-18.5-.6-36.63.23-54.69.49-10.63,6.6-19.32,14.14-26.83q25.51-25.38,50.84-51c1.53-1.53,3.09-3.05,4.5-4.68,7.21-8.31,7.28-16.95-.21-25-5.87-6.37-12.12-12.38-18.25-18.5-10.38-10.36-20.82-20.66-31.19-31-4.51-4.51-4.48-5.76,0-10.23,8.12-8.13,16.37-16.15,24.33-24.43,3.09-3.22,5.34-3.56,8.62-.21,16.93,17.23,34.2,34.14,51,51.47,25.45,26.24,25.19,65.72-.52,91.63Q160.07,299.66,110,349.63C108.85,350.79,107.59,351.85,106.38,353Z"/></g></g></g></svg>